<?xml version="1.0" encoding="UTF-8"?>
<svg width="20px" height="20px" viewBox="0 0 20 20" version="1.1" xmlns="http://www.w3.org/2000/svg" xmlns:xlink="http://www.w3.org/1999/xlink">
    <!-- Generator: Sketch 57.1 (83088) - https://sketch.com -->
    <title>facebook (1)</title>
    <desc>Created with Sketch.</desc>
    <g id="Page-1" stroke="none" stroke-width="1" fill="none" fill-rule="evenodd">
        <g id="facebook-(1)" fill="#FFFFFF" fill-rule="nonzero">
            <path d="M18.9,0 L1.1,0 C0.492486775,0 4.4408921e-16,0.492486775 4.4408921e-16,1.1 L4.4408921e-16,18.9 C4.4408921e-16,19.1917381 0.115892524,19.4715274 0.322182541,19.6778175 C0.528472557,19.8841075 0.808261861,20 1.1,20 L10.68,20 L10.68,12.25 L8.08,12.25 L8.08,9.25 L10.68,9.25 L10.68,7 C10.5709788,5.9307152 10.9401075,4.86791392 11.6884652,4.0964112 C12.4368228,3.32490848 13.4878914,2.92358883 14.56,3 C15.3383269,2.99521022 16.1162832,3.03527664 16.89,3.12 L16.89,5.82 L15.3,5.82 C14.04,5.82 13.8,6.42 13.8,7.29 L13.8,9.22 L16.8,9.22 L16.41,12.22 L13.8,12.22 L13.8,20 L18.9,20 C19.1917381,20 19.4715274,19.8841075 19.6778175,19.6778175 C19.8841075,19.4715274 20,19.1917381 20,18.9 L20,1.1 C20,0.808261861 19.8841075,0.528472557 19.6778175,0.322182541 C19.4715274,0.115892524 19.1917381,0 18.9,0 Z" id="Path"></path>
        </g>
    </g>
</svg>