<?xml version="1.0" encoding="utf-8"?>
<!-- Generator: Adobe Illustrator 22.1.0, SVG Export Plug-In . SVG Version: 6.00 Build 0)  -->
<svg version="1.1" id="레이어_1" xmlns="http://www.w3.org/2000/svg" xmlns:xlink="http://www.w3.org/1999/xlink" x="0px"
	 y="0px" viewBox="0 0 24 24" style="enable-background:new 0 0 24 24;" xml:space="preserve">
<style type="text/css">
	.st0{fill:#FFFFFF;}
</style>
<path class="st0" d="M22,5.8c-0.8,0.3-1.5,0.5-2.4,0.6c0.9-0.5,1.5-1.3,1.8-2.3c-0.8,0.5-1.7,0.8-2.6,1c-1.5-1.7-4.1-1.8-5.8-0.2
	c-1.1,1-1.6,2.5-1.2,4C8.5,8.7,5.5,7.2,3.4,4.6C3,5.3,2.8,6,2.8,6.7c0,1.4,0.7,2.6,1.8,3.4c-0.7,0-1.3-0.2-1.9-0.5v0.1
	c0,1.9,1.4,3.6,3.3,4c-0.4,0.1-0.7,0.2-1.1,0.2c-0.3,0-0.5,0-0.8-0.1c0.5,1.7,2.1,2.8,3.8,2.8c-1.4,1.1-3.2,1.8-5.1,1.8
	c-0.3,0-0.7,0-1-0.1c1.9,1.2,4.1,1.9,6.3,1.9c6.4,0.1,11.6-5.1,11.7-11.5c0-0.1,0-0.1,0-0.2c0-0.2,0-0.4,0-0.5
	C20.8,7.3,21.5,6.6,22,5.8z"/>
</svg>
